<?xml version="1.0" encoding="UTF-8" standalone="no"?>
<svg width="19px" height="16px" viewBox="0 0 19 16" version="1.1" xmlns="http://www.w3.org/2000/svg" xmlns:xlink="http://www.w3.org/1999/xlink">
    <!-- Generator: Sketch 3.6.1 (26313) - http://www.bohemiancoding.com/sketch -->
    <title>Shape</title>
    <desc>Created with Sketch.</desc>
    <defs></defs>
    <g id="Styleguide" stroke="none" stroke-width="1" fill="none" fill-rule="evenodd">
        <g id="Iconset" transform="translate(-1099.000000, -1280.000000)" fill="#000000">
            <path d="M1117.04778,1294.45749 C1117.04778,1294.76393 1116.79937,1295.01263 1116.49377,1295.01263 L1099.8728,1295.01263 C1099.56638,1295.01263 1099.31852,1294.76393 1099.31852,1294.45749 L1099.31852,1281.13366 C1099.31852,1281.12978 1099.32074,1281.12672 1099.32074,1281.12284 C1099.32074,1281.11562 1099.3249,1281.11007 1099.32518,1281.1023 C1099.33267,1280.97322 1099.38291,1280.85748 1099.46368,1280.76726 C1099.47256,1280.75672 1099.46868,1280.74145 1099.47839,1280.73173 C1099.4906,1280.71952 1099.50948,1280.72424 1099.52252,1280.71314 C1099.60579,1280.64374 1099.70765,1280.60044 1099.8209,1280.58934 C1099.84255,1280.5874 1099.8592,1280.57824 1099.88057,1280.57879 L1116.48573,1280.57879 C1116.50738,1280.57824 1116.52403,1280.5874 1116.5454,1280.58934 C1116.6592,1280.60044 1116.76106,1280.64402 1116.84405,1280.71314 C1116.8571,1280.72424 1116.87597,1280.71924 1116.88818,1280.73173 C1116.8979,1280.74173 1116.89401,1280.75699 1116.90289,1280.76726 C1116.98366,1280.85775 1117.0339,1280.97322 1117.0414,1281.1023 C1117.04167,1281.10979 1117.04584,1281.11534 1117.04584,1281.12284 C1117.04584,1281.12672 1117.04806,1281.12978 1117.04806,1281.13366 L1117.04806,1294.45749 L1117.04778,1294.45749 Z M1100.42653,1293.34719 C1100.42653,1293.65335 1100.67466,1293.90234 1100.98081,1293.90234 L1115.38549,1293.90234 C1115.69136,1293.90234 1115.93949,1293.65335 1115.93949,1293.34719 L1115.93949,1282.26422 L1108.59171,1288.15767 C1108.5845,1288.166 1108.58783,1288.17849 1108.57978,1288.18654 C1108.47014,1288.29646 1108.32637,1288.34503 1108.18287,1288.34198 C1108.03854,1288.34503 1107.89504,1288.29673 1107.78541,1288.18654 C1107.77764,1288.17876 1107.78069,1288.16627 1107.77347,1288.15767 L1100.42597,1282.26422 L1100.42597,1293.34719 L1100.42653,1293.34719 Z M1108.18343,1287.09623 L1114.92419,1281.68936 L1101.44239,1281.68936 L1108.18343,1287.09623 L1108.18343,1287.09623 Z" id="Shape"></path>
        </g>
    </g>
</svg>