<?xml version="1.0" encoding="UTF-8" standalone="no"?>
<svg width="18px" height="19px" viewBox="0 0 18 19" version="1.1" xmlns="http://www.w3.org/2000/svg" xmlns:xlink="http://www.w3.org/1999/xlink">
    <!-- Generator: Sketch 3.6.1 (26313) - http://www.bohemiancoding.com/sketch -->
    <title>Shape</title>
    <desc>Created with Sketch.</desc>
    <defs></defs>
    <g id="Styleguide" stroke="none" stroke-width="1" fill="none" fill-rule="evenodd">
        <g id="Iconset" transform="translate(-43.000000, -1662.000000)" fill="#000000">
            <path d="M59.6461538,1680.28438 L43.9885805,1680.28438 C43.1206582,1678.95314 43.4723236,1676.28898 44.3405234,1675.40186 C44.7543616,1674.97939 47.8541237,1674.17997 49.3382236,1673.81608 C47.771134,1672.59891 46.8157811,1670.34085 46.8157811,1668.18771 C46.8157811,1665.05806 47.7247819,1662.52076 51.8154243,1662.52076 C55.9057891,1662.52076 56.8147898,1665.05806 56.8147898,1668.18771 C56.8147898,1670.33447 55.8647105,1672.58615 54.3056701,1673.80581 C55.7556305,1674.16748 58.9022998,1674.98883 59.3033703,1675.40186 C60.1646312,1676.28926 60.5079699,1678.95314 59.6461538,1680.28438 L59.6461538,1680.28438 Z M58.5892149,1676.33783 C58.020222,1676.03278 55.5704996,1675.34523 53.482157,1674.84393 L53.482157,1673.08522 C54.8743854,1672.13759 55.6992863,1670.0791 55.6992863,1668.20825 C55.6992863,1665.67816 55.0520222,1663.62662 51.8154243,1663.62662 C48.5788263,1663.62662 47.9315623,1665.67816 47.9315623,1668.20825 C47.9315623,1670.08076 48.7575734,1672.14092 50.1514671,1673.08772 L50.1514671,1674.86031 C48.0525773,1675.35411 45.615345,1676.03028 45.0549564,1676.33728 C44.6921887,1676.79472 44.3752181,1678.26003 44.6003172,1679.17631 L59.0333069,1679.17631 C59.2570182,1678.26003 58.946709,1676.79916 58.5892149,1676.33783 L58.5892149,1676.33783 Z" id="Shape"></path>
        </g>
    </g>
</svg>